<svg width="14" height="19" viewBox="0 0 14 19" fill="none" xmlns="http://www.w3.org/2000/svg">
<path d="M10.8889 1.58333C10.8889 1.16341 10.725 0.76068 10.4333 0.463748C10.1416 0.166815 9.74589 0 9.33333 0L4.66667 0C4.25411 0 3.85845 0.166815 3.56672 0.463748C3.275 0.76068 3.11111 1.16341 3.11111 1.58333H1.55556C1.143 1.58333 0.747337 1.75015 0.455613 2.04708C0.16389 2.34401 1.92919e-06 2.74674 1.92919e-06 3.16667V3.95833C-0.000225949 4.06236 0.0197363 4.16541 0.0587426 4.26157C0.0977489 4.35772 0.155031 4.44508 0.2273 4.51864C0.299568 4.5922 0.3854 4.65051 0.479867 4.69021C0.574335 4.72991 0.675576 4.75023 0.777779 4.75H1.55556V17.2214C1.55556 17.6931 1.73966 18.1455 2.06736 18.4791C2.39506 18.8126 2.83952 19 3.30296 19H10.697C11.1605 19 11.6049 18.8126 11.9326 18.4791C12.2603 18.1455 12.4444 17.6931 12.4444 17.2214V4.75H13.2222C13.3244 4.75023 13.4257 4.72991 13.5201 4.69021C13.6146 4.65051 13.7004 4.5922 13.7727 4.51864C13.845 4.44508 13.9023 4.35772 13.9413 4.26157C13.9803 4.16541 14.0002 4.06236 14 3.95833V3.16667C14 2.74674 13.8361 2.34401 13.5444 2.04708C13.2527 1.75015 12.857 1.58333 12.4444 1.58333H10.8889ZM3.88889 17.4167C3.78669 17.4169 3.68545 17.3966 3.59098 17.3569C3.49651 17.3172 3.41068 17.2589 3.33841 17.1853C3.26614 17.1118 3.20886 17.0244 3.16985 16.9282C3.13085 16.8321 3.11088 16.729 3.11111 16.625V7.125C3.11088 7.02097 3.13085 6.91792 3.16985 6.82177C3.20886 6.72561 3.26614 6.63825 3.33841 6.56469C3.41068 6.49113 3.49651 6.43283 3.59098 6.39312C3.68545 6.35342 3.78669 6.3331 3.88889 6.33333C3.99109 6.3331 4.09233 6.35342 4.1868 6.39312C4.28127 6.43283 4.3671 6.49113 4.43937 6.56469C4.51164 6.63825 4.56892 6.72561 4.60793 6.82177C4.64693 6.91792 4.6669 7.02097 4.66667 7.125V16.625C4.6669 16.729 4.64693 16.8321 4.60793 16.9282C4.56892 17.0244 4.51164 17.1118 4.43937 17.1853C4.3671 17.2589 4.28127 17.3172 4.1868 17.3569C4.09233 17.3966 3.99109 17.4169 3.88889 17.4167ZM7 17.4167C6.8978 17.4169 6.79656 17.3966 6.70209 17.3569C6.60762 17.3172 6.52179 17.2589 6.44952 17.1853C6.37725 17.1118 6.31997 17.0244 6.28096 16.9282C6.24196 16.8321 6.22199 16.729 6.22222 16.625V7.125C6.22199 7.02097 6.24196 6.91792 6.28096 6.82177C6.31997 6.72561 6.37725 6.63825 6.44952 6.56469C6.52179 6.49113 6.60762 6.43283 6.70209 6.39312C6.79656 6.35342 6.8978 6.3331 7 6.33333C7.1022 6.3331 7.20344 6.35342 7.29791 6.39312C7.39238 6.43283 7.47821 6.49113 7.55048 6.56469C7.62275 6.63825 7.68003 6.72561 7.71904 6.82177C7.75804 6.91792 7.77801 7.02097 7.77778 7.125V16.625C7.77801 16.729 7.75804 16.8321 7.71904 16.9282C7.68003 17.0244 7.62275 17.1118 7.55048 17.1853C7.47821 17.2589 7.39238 17.3172 7.29791 17.3569C7.20344 17.3966 7.1022 17.4169 7 17.4167ZM10.1111 17.4167C10.0089 17.4169 9.90767 17.3966 9.8132 17.3569C9.71873 17.3172 9.6329 17.2589 9.56063 17.1853C9.48836 17.1118 9.43108 17.0244 9.39207 16.9282C9.35307 16.8321 9.33311 16.729 9.33333 16.625V7.125C9.33311 7.02097 9.35307 6.91792 9.39207 6.82177C9.43108 6.72561 9.48836 6.63825 9.56063 6.56469C9.6329 6.49113 9.71873 6.43283 9.8132 6.39312C9.90767 6.35342 10.0089 6.3331 10.1111 6.33333C10.2133 6.3331 10.3146 6.35342 10.409 6.39312C10.5035 6.43283 10.5893 6.49113 10.6616 6.56469C10.7339 6.63825 10.7911 6.72561 10.8301 6.82177C10.8692 6.91792 10.8891 7.02097 10.8889 7.125V16.625C10.8891 16.729 10.8692 16.8321 10.8301 16.9282C10.7911 17.0244 10.7339 17.1118 10.6616 17.1853C10.5893 17.2589 10.5035 17.3172 10.409 17.3569C10.3146 17.3966 10.2133 17.4169 10.1111 17.4167Z" fill="#C4C4C4"/>
</svg>
