<svg width="27" height="25" viewBox="0 0 27 25" fill="none" xmlns="http://www.w3.org/2000/svg">
<g clip-path="url(#clip0_950_328)">
<path d="M22.5496 2.28992H20.3197V1.5199C20.2886 1.13677 20.1145 0.779392 19.8319 0.518799C19.5494 0.258206 19.179 0.113525 18.7946 0.113525C18.4102 0.113525 18.04 0.258206 17.7574 0.518799C17.4748 0.779392 17.3007 1.13677 17.2697 1.5199V2.28992H14.5396V1.5199C14.47 1.17338 14.2826 0.861646 14.0091 0.637695C13.7357 0.413745 13.3931 0.291382 13.0396 0.291382C12.6862 0.291382 12.3436 0.413745 12.0702 0.637695C11.7968 0.861646 11.6093 1.17338 11.5396 1.5199V2.28992H8.80965V1.5199C8.74 1.17338 8.55251 0.861646 8.27907 0.637695C8.00562 0.413745 7.66309 0.291382 7.30965 0.291382C6.9562 0.291382 6.61367 0.413745 6.34022 0.637695C6.06678 0.861646 5.87929 1.17338 5.80965 1.5199V2.28992H3.57967C2.65671 2.28992 1.77154 2.65658 1.11891 3.3092C0.466284 3.96183 0.0996237 4.84694 0.0996237 5.7699V20.7699C0.0983081 21.2277 0.18735 21.6814 0.361648 22.1047C0.535945 22.5281 0.792092 22.9129 1.11537 23.2371C1.43865 23.5613 1.82275 23.8186 2.24562 23.9941C2.66849 24.1696 3.12182 24.2599 3.57967 24.2599H22.6497C23.1075 24.2599 23.5609 24.1696 23.9837 23.9941C24.4066 23.8186 24.7906 23.5613 25.1139 23.2371C25.4372 22.9129 25.6933 22.5281 25.8676 22.1047C26.0419 21.6814 26.131 21.2277 26.1297 20.7699V5.7699C26.1298 5.30436 26.0366 4.84354 25.8555 4.41467C25.6744 3.98581 25.4091 3.59762 25.0753 3.27313C24.7415 2.94864 24.3459 2.69446 23.9121 2.52557C23.4783 2.35669 23.015 2.27654 22.5496 2.28992ZM24.0296 21.0299C24.0309 21.1949 23.9996 21.3585 23.9374 21.5114C23.8752 21.6642 23.7833 21.8032 23.6671 21.9203C23.5509 22.0374 23.4126 22.1303 23.2603 22.1938C23.108 22.2572 22.9446 22.2899 22.7796 22.2899H3.24965C3.08465 22.2899 2.92131 22.2572 2.769 22.1938C2.61668 22.1303 2.4784 22.0374 2.3622 21.9203C2.24599 21.8032 2.15416 21.6642 2.09193 21.5114C2.02971 21.3585 1.99833 21.1949 1.99965 21.0299V9.53992C1.99965 9.2084 2.13132 8.89043 2.36574 8.65601C2.60016 8.42159 2.91813 8.28992 3.24965 8.28992H22.7796C23.1111 8.28992 23.4291 8.42159 23.6635 8.65601C23.8979 8.89043 24.0296 9.2084 24.0296 9.53992V21.0299Z" fill="#727883"/>
</g>
<defs>
<clipPath id="clip0_950_328">
<rect width="26.03" height="24.29" fill="white"/>
</clipPath>
</defs>
</svg>
