<svg width="52" height="27" viewBox="0 0 52 27" fill="none" xmlns="http://www.w3.org/2000/svg">
<g clip-path="url(#clip0_301_835)">
<path d="M4.28158 23.1371C2.75231 20.8111 1.82157 18.1431 1.57217 15.3706C1.32277 12.598 1.76245 9.8068 2.85206 7.24516C3.65105 5.41739 6.11358 3.94501 7.86308 3.78764L42.437 0.677627C44.1788 0.520948 46.8723 1.52953 47.9846 3.18537C49.5139 5.51143 50.4446 8.17938 50.694 10.9519C50.9434 13.7245 50.5038 16.5157 49.4142 19.0773C48.6152 20.9051 46.1449 22.3782 44.4031 22.5349L9.8292 25.6449C8.07761 25.7791 5.39185 24.7698 4.28158 23.1371Z" fill="#727883"/>
<path d="M29.0873 19.142C30.0727 14.9839 29.68 10.6183 27.9683 6.70284C27.8546 6.44836 27.8397 6.16065 27.9264 5.89576C28.0132 5.63088 28.1954 5.40775 28.4377 5.26987C29.7862 4.59952 31.1315 3.92173 32.4735 3.23643C32.9789 2.9812 33.6868 3.33706 34.0007 4.06246C36.2889 9.28691 36.8131 15.1145 35.494 20.6635C35.3167 21.4564 34.6823 21.9174 34.1388 21.7488L29.7663 20.4717C29.5086 20.3734 29.2966 20.183 29.1711 19.9374C29.0457 19.6918 29.0159 19.4084 29.0873 19.142Z" fill="white"/>
<path d="M16.4618 7.73793C15.4764 11.896 15.8691 16.2616 17.5807 20.1771C17.7 20.4308 17.7179 20.7204 17.6307 20.9868C17.5434 21.2532 17.3576 21.4762 17.1114 21.6101C15.7741 22.2898 14.4283 22.9624 13.0832 23.6428C12.5785 23.9058 11.8699 23.5422 11.5483 22.8175C9.26783 17.5911 8.74385 11.766 10.055 6.21648C10.24 5.4229 10.8752 4.96953 11.418 5.13048C12.8654 5.55968 14.3076 5.98673 15.7443 6.41172C16.0094 6.50112 16.2308 6.68765 16.3639 6.93371C16.497 7.17977 16.532 7.46712 16.4618 7.73793Z" fill="white"/>
<path d="M15.3746 4.72016C19.6841 4.09522 24.0245 3.70479 28.3764 3.55062C28.4055 3.54717 28.435 3.55418 28.4594 3.57041C28.4839 3.58665 28.5018 3.61103 28.5099 3.63923C28.5181 3.66743 28.5159 3.69761 28.5038 3.72438C28.4918 3.75114 28.4706 3.77277 28.4441 3.78537L23.7437 6.20493C23.6003 6.28 23.4432 6.32581 23.2819 6.33971L21.3628 6.51233C21.2156 6.52692 21.0668 6.51393 20.9243 6.47406L15.3505 4.97095C15.3173 4.96776 15.2866 4.95147 15.2653 4.92569C15.2441 4.89992 15.234 4.86679 15.2371 4.83353C15.2403 4.80028 15.2566 4.76963 15.2824 4.74837C15.3082 4.72711 15.3413 4.71697 15.3746 4.72016Z" fill="white"/>
<path d="M17.0491 23.3405C21.401 23.1863 25.7413 22.7959 30.0509 22.1709C30.0802 22.1691 30.1079 22.157 30.1291 22.1366C30.1503 22.1163 30.1635 22.0891 30.1665 22.0599C30.1695 22.0307 30.1619 22.0014 30.1453 21.9772C30.1287 21.953 30.104 21.9355 30.0757 21.9279L25.0189 20.386C24.8644 20.3377 24.7017 20.3207 24.5405 20.3358L22.6214 20.5084C22.4746 20.524 22.3312 20.5632 22.1967 20.6243L16.9814 23.1057C16.9549 23.1183 16.9337 23.14 16.9216 23.1667C16.9096 23.1935 16.9075 23.2237 16.9156 23.2519C16.9237 23.2801 16.9416 23.3045 16.9661 23.3207C16.9905 23.3369 17.0199 23.3439 17.0491 23.3405Z" fill="white"/>
</g>
<defs>
<clipPath id="clip0_301_835">
<rect width="21.9378" height="49.3154" fill="white" transform="translate(49.71) rotate(84.8599)"/>
</clipPath>
</defs>
</svg>
