<svg width="51" height="25" viewBox="0 0 51 25" fill="none" xmlns="http://www.w3.org/2000/svg">
<g clip-path="url(#clip0_602_2326)">
<path d="M48.3198 5.64488C49.4931 8.16927 50.0244 10.9445 49.8664 13.7238C49.7084 16.503 48.866 19.2001 47.4141 21.5753C46.3568 23.2668 43.7057 24.364 41.952 24.2643L7.29449 22.2939C5.54848 22.1947 3.03106 20.8037 2.17233 19.0032C0.999 16.4788 0.467737 13.7036 0.625743 10.9243C0.783748 8.14508 1.62612 5.44795 3.078 3.07281C4.13525 1.38126 6.79411 0.284565 8.54012 0.383829L43.1976 2.35417C44.9501 2.47705 47.4597 3.86758 48.3198 5.64488Z" fill="#727883"/>
<path d="M23.1963 5.97608C21.6145 9.94576 21.3657 14.322 22.4874 18.4453C22.5628 18.7137 22.5356 19.0005 22.4111 19.2499C22.2866 19.4993 22.0737 19.6934 21.814 19.7945C20.382 20.2608 18.9522 20.7349 17.5245 21.217C16.9873 21.3957 16.3389 20.9403 16.1342 20.1768C14.6332 14.6743 14.9653 8.83262 17.0803 3.53568C17.3715 2.77717 18.0664 2.41365 18.5795 2.65984L22.7187 4.56153C22.9593 4.69641 23.1412 4.91569 23.2295 5.17697C23.3177 5.43825 23.3059 5.723 23.1963 5.97608Z" fill="white"/>
<path d="M34.022 19.1008C35.6038 15.1311 35.8526 10.7549 34.7309 6.6315C34.6499 6.36315 34.6745 6.074 34.7997 5.82321C34.9249 5.57242 35.1412 5.37893 35.4044 5.28239C36.8266 4.80519 38.2562 4.3362 39.6862 3.85945C40.2238 3.67299 40.8717 4.13611 41.0841 4.9C42.5772 10.4033 42.2453 16.2425 40.138 21.5412C39.8391 22.2992 39.1446 22.655 38.6312 22.4166C37.2618 21.7807 35.8975 21.1477 34.5382 20.5175C34.289 20.3904 34.0972 20.1735 34.0014 19.9107C33.9057 19.6478 33.913 19.3584 34.022 19.1008Z" fill="white"/>
<path d="M34.6568 22.2451C30.3021 22.2342 25.9513 21.9868 21.6235 21.5041C21.5942 21.5032 21.566 21.492 21.5442 21.4724C21.5224 21.4527 21.5083 21.426 21.5043 21.3969C21.5004 21.3678 21.507 21.3383 21.5228 21.3136C21.5386 21.2889 21.5627 21.2706 21.5908 21.262L26.594 19.5545C26.7469 19.5012 26.9089 19.4788 27.0706 19.4886L28.9943 19.5979C29.1421 19.605 29.2873 19.6396 29.4225 19.6998L34.7172 22.0005C34.7496 22.0085 34.7775 22.0291 34.7948 22.0577C34.8121 22.0863 34.8173 22.1205 34.8093 22.153C34.8013 22.1854 34.7807 22.2133 34.7521 22.2306C34.7235 22.2479 34.6892 22.2531 34.6568 22.2451Z" fill="white"/>
<path d="M35.7179 3.57988C31.3901 3.09712 27.0393 2.84977 22.6847 2.83892C22.6554 2.83643 22.6262 2.84441 22.6023 2.86144C22.5784 2.87847 22.5613 2.90343 22.5541 2.93188C22.5469 2.96033 22.5501 2.99043 22.563 3.01678C22.5759 3.04314 22.5978 3.06405 22.6247 3.07578L27.4021 5.33932C27.548 5.40962 27.7065 5.45024 27.8682 5.45882L29.7919 5.56818C29.9394 5.57417 30.087 5.55636 30.2289 5.51549L35.7507 3.82201C35.7787 3.81341 35.8028 3.79511 35.8186 3.77039C35.8345 3.74567 35.841 3.71613 35.8371 3.68704C35.8331 3.65795 35.819 3.63122 35.7972 3.61159C35.7753 3.59196 35.7473 3.58072 35.7179 3.57988Z" fill="white"/>
</g>
<defs>
<clipPath id="clip0_602_2326">
<rect width="21.9378" height="49.3154" fill="white" transform="translate(0 21.9023) rotate(-86.7461)"/>
</clipPath>
</defs>
</svg>
