<svg width="27" height="52" viewBox="0 0 27 52" fill="none" xmlns="http://www.w3.org/2000/svg">
<g clip-path="url(#clip0_503_1000)">
<path d="M23.1373 47.3942C20.8112 48.9235 18.1432 49.8542 15.3707 50.1036C12.5981 50.353 9.80692 49.9133 7.24528 48.8237C5.41752 48.0247 3.94513 45.5622 3.78776 43.8127L0.67775 9.23881C0.521071 7.49701 1.52966 4.8035 3.18549 3.69115C5.51155 2.16188 8.1795 1.23118 10.9521 0.981786C13.7246 0.732388 16.5158 1.17202 19.0775 2.26162C20.9052 3.06062 22.3783 5.5309 22.535 7.2727L25.645 41.8466C25.7792 43.5982 24.77 46.2839 23.1373 47.3942Z" fill="#727883"/>
<path d="M19.142 22.5885C14.9839 21.6031 10.6183 21.9958 6.70284 23.7074C6.44836 23.8212 6.16065 23.8361 5.89576 23.7494C5.63088 23.6626 5.40775 23.4804 5.26987 23.2381C4.59952 21.8896 3.92173 20.5443 3.23643 19.2022C2.9812 18.6969 3.33706 17.9889 4.06246 17.6751C9.28691 15.3868 15.1145 14.8626 20.6635 16.1818C21.4564 16.3591 21.9174 16.9935 21.7488 17.537L20.4717 21.9095C20.3734 22.1672 20.183 22.3792 19.9374 22.5046C19.6918 22.6301 19.4084 22.6599 19.142 22.5885Z" fill="white"/>
<path d="M7.73842 35.214C11.8965 36.1994 16.2621 35.8067 20.1776 34.0951C20.4312 33.9758 20.7209 33.9579 20.9873 34.0451C21.2536 34.1324 21.4766 34.3181 21.6106 34.5644C22.2903 35.9017 22.9629 37.2475 23.6433 38.5926C23.9063 39.0973 23.5427 39.8059 22.818 40.1274C17.5915 42.408 11.7665 42.9319 6.21697 41.6207C5.42338 41.4357 4.97002 40.8006 5.13097 40.2578C5.56016 38.8104 5.98722 37.3682 6.4122 35.9315C6.50161 35.6664 6.68814 35.445 6.9342 35.3119C7.18025 35.1788 7.46761 35.1438 7.73842 35.214Z" fill="white"/>
<path d="M4.7198 36.3012C4.09485 31.9916 3.70443 27.6513 3.55025 23.2994C3.5468 23.2703 3.55381 23.2408 3.57005 23.2163C3.58628 23.1919 3.61066 23.174 3.63887 23.1659C3.66707 23.1577 3.69725 23.1599 3.72401 23.172C3.75078 23.184 3.7724 23.2052 3.78501 23.2317L6.20457 27.932C6.27963 28.0755 6.32544 28.2325 6.33934 28.3939L6.51197 30.3129C6.52656 30.4602 6.51356 30.6089 6.47369 30.7515L4.97059 36.3253C4.9674 36.3585 4.9511 36.3892 4.92533 36.4104C4.89956 36.4317 4.86642 36.4418 4.83317 36.4386C4.79991 36.4354 4.76926 36.4192 4.74801 36.3934C4.72675 36.3676 4.71661 36.3345 4.7198 36.3012Z" fill="white"/>
<path d="M23.3407 34.6262C23.1866 30.2743 22.7961 25.934 22.1712 21.6244C22.1694 21.5951 22.1572 21.5674 22.1369 21.5462C22.1166 21.525 22.0894 21.5118 22.0602 21.5088C22.031 21.5058 22.0017 21.5134 21.9775 21.53C21.9533 21.5466 21.9358 21.5713 21.9281 21.5996L20.3862 26.6563C20.338 26.8109 20.3209 26.9736 20.336 27.1348L20.5087 29.0539C20.5243 29.2007 20.5634 29.3441 20.6246 29.4785L23.106 34.6939C23.1186 34.7204 23.1402 34.7416 23.167 34.7537C23.1937 34.7657 23.2239 34.7678 23.2521 34.7597C23.2803 34.7516 23.3047 34.7337 23.3209 34.7092C23.3372 34.6848 23.3442 34.6554 23.3407 34.6262Z" fill="white"/>
</g>
<defs>
<clipPath id="clip0_503_1000">
<rect width="21.9378" height="49.3154" fill="white" transform="translate(0 1.96533) rotate(-5.14007)"/>
</clipPath>
</defs>
</svg>
