<svg width="16" height="16" viewBox="0 0 16 16" fill="none" xmlns="http://www.w3.org/2000/svg">
<path d="M3.80059 14.8055L1.34697 15.9123C1.17785 15.9885 0.989796 16.014 0.806144 15.9856C0.622492 15.9572 0.451331 15.8762 0.3139 15.7525C0.176468 15.6289 0.0788176 15.4682 0.0330687 15.2903C-0.0126802 15.1123 -0.0045149 14.9251 0.0565522 14.7517L1.00367 12.0474L12.6316 0.580413C13.0019 0.215315 13.5038 0.0102539 14.027 0.0102539C14.5503 0.0102539 15.0522 0.215315 15.4224 0.580413C15.7928 0.946175 16.0008 1.44222 16.0008 1.95945C16.0008 2.47668 15.7928 2.97272 15.4224 3.33848L3.80059 14.8055Z" fill="#C4C4C4"/>
</svg>
