<svg width="20" height="20" viewBox="0 0 20 20" fill="none" xmlns="http://www.w3.org/2000/svg">
<path fill-rule="evenodd" clip-rule="evenodd" d="M18.703 0.707108C19.0934 1.09763 19.0934 1.7308 18.703 2.12132L2.12077 18.7071C1.73033 19.0976 1.09731 19.0976 0.706866 18.7071C0.316426 18.3166 0.316426 17.6834 0.706865 17.2929L17.2891 0.707108C17.6795 0.316584 18.3125 0.316584 18.703 0.707108Z" fill="#727883"/>
<path fill-rule="evenodd" clip-rule="evenodd" d="M18.703 18.7071C18.3126 19.0976 17.6796 19.0976 17.2891 18.7071L0.706954 2.12132C0.316514 1.7308 0.316514 1.09763 0.706954 0.707107C1.09739 0.316583 1.73042 0.316582 2.12086 0.707107L18.703 17.2929C19.0935 17.6834 19.0935 18.3166 18.703 18.7071Z" fill="#727883"/>
</svg>
