<svg width="449" height="331" viewBox="0 0 449 331" fill="none" xmlns="http://www.w3.org/2000/svg">
<g filter="url(#filter0_d_201_33)">
<path d="M197.255 41H64.49C58.4332 41 55.4048 41 53.0832 42.16C50.9524 43.2247 49.2247 44.9524 48.16 47.0832C47 49.4048 47 52.4332 47 58.49V243.01C47 249.067 47 252.095 48.16 254.417C49.2247 256.548 50.9524 258.275 53.0832 259.34C55.4048 260.5 58.4332 260.5 64.49 260.5H384.51C390.567 260.5 393.595 260.5 395.917 259.34C398.048 258.275 399.775 256.548 400.84 254.417C402 252.095 402 249.067 402 243.01V58.49C402 52.4332 402 49.4048 400.84 47.0832C399.775 44.9524 398.048 43.2247 395.917 42.16C393.595 41 390.567 41 384.51 41H253.745C251.099 41 249.776 41 248.53 40.7061C247.379 40.4344 246.279 39.9786 245.272 39.3564C244.183 38.6833 243.248 37.748 241.377 35.8773L237.867 32.3673C233.584 28.0845 231.443 25.9431 228.981 25.1217C226.722 24.3679 224.278 24.3679 222.019 25.1217C219.557 25.9431 217.416 28.0845 213.133 32.3673L209.623 35.8773C207.752 37.748 206.817 38.6833 205.728 39.3564C204.721 39.9786 203.621 40.4344 202.47 40.7061C201.224 41 199.901 41 197.255 41Z" fill="white"/>
</g>
<defs>
<filter id="filter0_d_201_33" x="0" y="0.556335" width="449" height="329.944" filterUnits="userSpaceOnUse" color-interpolation-filters="sRGB">
<feFlood flood-opacity="0" result="BackgroundImageFix"/>
<feColorMatrix in="SourceAlpha" type="matrix" values="0 0 0 0 0 0 0 0 0 0 0 0 0 0 0 0 0 0 127 0" result="hardAlpha"/>
<feOffset dy="23"/>
<feGaussianBlur stdDeviation="23.5"/>
<feComposite in2="hardAlpha" operator="out"/>
<feColorMatrix type="matrix" values="0 0 0 0 0 0 0 0 0 0 0 0 0 0 0 0 0 0 0.1 0"/>
<feBlend mode="normal" in2="BackgroundImageFix" result="effect1_dropShadow_201_33"/>
<feBlend mode="normal" in="SourceGraphic" in2="effect1_dropShadow_201_33" result="shape"/>
</filter>
</defs>
</svg>
