<svg width="26" height="26" viewBox="0 0 26 26" fill="none" xmlns="http://www.w3.org/2000/svg">
<path d="M25.4459 12.8091C25.4459 15.3591 25.4459 17.1094 25.4459 18.1094C25.5038 19.1029 25.3519 20.0972 24.9996 21.0275C24.6473 21.9577 24.103 22.8023 23.4024 23.5061C22.7018 24.2098 21.8605 24.7569 20.9344 25.1107C20.0083 25.4645 19.0181 25.6175 18.0289 25.5593H12.7524H7.42603C6.43881 25.6095 5.45218 25.4509 4.52966 25.0942C3.60715 24.7376 2.76946 24.1911 2.0705 23.489C1.37154 22.7869 0.826825 21.9449 0.471771 21.0183C0.116717 20.0917 -0.0409484 19.101 0.00904478 18.1094C0.00904478 17.1094 0.00904478 15.3591 0.00904478 12.8091C0.00904478 10.2591 0.00904478 8.45934 0.00904478 7.45934C-0.0257368 6.47159 0.142329 5.48718 0.502761 4.5675C0.863193 3.64781 1.40843 2.81246 2.10423 2.11358C2.80002 1.41469 3.63137 0.86703 4.54698 0.504996C5.46259 0.142962 6.44265 -0.0258512 7.42603 0.00908498H12.7524H18.0289C19.0162 -0.0411303 20.0028 0.117235 20.9253 0.473868C21.8478 0.8305 22.6858 1.37763 23.3848 2.0797C24.0837 2.78177 24.6281 3.62318 24.9832 4.5498C25.3382 5.47641 25.4959 6.46773 25.4459 7.45934C25.3961 8.45934 25.4459 10.4591 25.4459 12.8091ZM13.8972 2.2091H7.97353H6.28122L5.08658 2.50908C4.5249 2.71081 4.01476 3.03543 3.59297 3.4591C3.17118 3.88276 2.8483 4.39517 2.64746 4.95934C2.49884 5.34538 2.39853 5.74842 2.3488 6.15929C2.31271 6.72538 2.31271 7.29303 2.3488 7.85912C2.37894 8.4087 2.37894 8.95962 2.3488 9.50921V11.2591C2.3488 12.0091 2.3488 12.4591 2.3488 12.5591C2.3488 12.6591 2.3488 13.0591 2.3488 13.8091V15.6094C2.37895 16.1423 2.37895 16.6762 2.3488 17.2091C2.31271 17.7752 2.31271 18.3431 2.3488 18.9092C2.39853 19.3201 2.49884 19.7231 2.64746 20.1092C2.8483 20.6734 3.17118 21.1861 3.59297 21.6097C4.01476 22.0334 4.5249 22.3577 5.08658 22.5594C5.46392 22.7299 5.86841 22.8312 6.28122 22.8591H7.97353H17.2824H18.9747C19.3875 22.8312 19.792 22.7299 20.1694 22.5594C20.7311 22.3577 21.2412 22.0334 21.663 21.6097C22.0848 21.1861 22.4077 20.6734 22.6085 20.1092C22.7782 19.7302 22.8793 19.3239 22.9072 18.9092C22.9432 18.3431 22.9432 17.7752 22.9072 17.2091C22.9072 16.5091 22.9072 16.0094 22.9072 15.6094V9.50921C22.9072 9.10921 22.9072 8.55912 22.9072 7.85912C22.9432 7.29303 22.9432 6.72538 22.9072 6.15929C22.8793 5.74465 22.7782 5.33836 22.6085 4.95934C22.4077 4.39517 22.0848 3.88276 21.663 3.4591C21.2412 3.03543 20.7311 2.71081 20.1694 2.50908L18.9747 2.2091H17.2824H13.8972ZM17.2824 8.10937C18.5168 9.34925 19.2102 11.0309 19.2102 12.7844C19.2102 14.5378 18.5168 16.2195 17.2824 17.4593C16.048 18.6992 14.3735 19.3957 12.6278 19.3957C10.8821 19.3957 9.20793 18.6992 7.97353 17.4593C6.73912 16.2195 6.04575 14.5378 6.04575 12.7844C6.04575 11.0309 6.73912 9.34925 7.97353 8.10937C9.20793 6.86948 10.8821 6.17272 12.6278 6.17272C14.3735 6.17272 16.048 6.86948 17.2824 8.10937ZM15.6396 15.8093C16.3435 15.1066 16.7824 14.1802 16.8814 13.1884C16.9804 12.1966 16.7335 11.2013 16.1826 10.3722C15.6317 9.54322 14.8112 8.932 13.8614 8.64342C12.9115 8.35485 11.8913 8.40685 10.9753 8.79021C10.0593 9.17357 9.30424 9.86454 8.83943 10.7452C8.37461 11.6258 8.229 12.6411 8.42714 13.6178C8.62528 14.5945 9.15509 15.4718 9.92591 16.0995C10.6967 16.7272 11.6604 17.0665 12.6527 17.0593C13.2091 17.0664 13.7612 16.9593 14.2749 16.7443C14.7885 16.5294 15.2529 16.2111 15.6396 15.8093ZM20.6175 4.85924C20.7591 4.99467 20.8717 5.15757 20.9487 5.33806C21.0257 5.51856 21.0654 5.71298 21.0654 5.90935C21.0723 6.11409 21.0359 6.3179 20.9587 6.5075C20.8815 6.6971 20.7653 6.86805 20.6175 7.00921C20.4734 7.15289 20.3026 7.26677 20.1147 7.34398C19.9268 7.4212 19.7253 7.46039 19.5222 7.45934C19.113 7.45934 18.7206 7.29592 18.4312 7.00524C18.1418 6.71456 17.9791 6.32044 17.9791 5.90935C17.9791 5.71298 18.0188 5.51856 18.0958 5.33806C18.1728 5.15757 18.2857 4.99467 18.4272 4.85924C18.561 4.70219 18.7302 4.57953 18.9207 4.50127C19.1111 4.42301 19.3172 4.39127 19.5222 4.40911C19.7186 4.4028 19.914 4.44 20.0946 4.51775C20.2753 4.5955 20.4368 4.71204 20.5677 4.85924H20.6175Z" fill="white"/>
</svg>
