<svg width="92" height="25" viewBox="0 0 92 25" fill="none" xmlns="http://www.w3.org/2000/svg">
<path d="M39.3299 18.0095C39.3299 20.3791 38.0649 22.0379 35.6499 23.1042C34.1549 23.6967 31.5099 23.9336 27.5999 23.9336H16.2149L15.2949 23.1042C15.4099 19.4313 15.5249 16.1137 15.5249 13.1516C15.5249 10.1896 15.4099 6.9905 15.2949 3.55448L16.3299 2.48813H26.7949C30.2449 2.48813 32.6599 2.7251 33.8099 3.08055C36.7999 3.90993 38.1799 5.45022 38.1799 7.7014C38.1799 9.95259 36.9149 11.6114 34.1549 12.4407C35.4791 12.7538 36.7052 13.4058 37.7199 14.3365C38.8699 15.2843 39.3299 16.5877 39.3299 18.0095ZM28.5199 8.53079C28.5199 7.46444 28.1749 6.63505 27.5999 6.04263C26.9099 5.33173 26.1049 4.97628 25.1849 4.73932V12.2038C26.1049 12.0853 26.9099 11.6114 27.5999 11.0189C28.1749 10.308 28.5199 9.47865 28.5199 8.53079ZM29.3249 18.0095C29.3249 16.8246 28.8649 15.8768 28.0599 15.2843C27.2549 14.6919 26.3349 14.3365 25.1849 14.218V21.8009C26.3349 21.6824 27.2549 21.327 28.0599 20.7346C28.9799 20.0237 29.3249 19.0758 29.3249 18.0095ZM68.8849 13.2701C68.8849 17.0616 67.2749 19.9052 64.0549 21.9194C61.2949 23.5782 58.0749 24.2891 54.1649 24.2891C50.5999 24.2891 47.6099 23.4597 45.0799 21.6824C42.3199 19.6682 40.9399 16.9431 40.9399 13.3886C40.9399 9.47865 42.4349 6.63505 45.5399 4.62083C48.0699 3.08055 51.2899 2.25117 55.1999 2.25117C58.9949 2.25117 62.0999 3.08055 64.5149 4.8578C67.5049 6.87202 68.8849 9.71562 68.8849 13.2701ZM58.1899 15.5213C58.2022 13.5078 57.8914 11.5061 57.2699 9.59714C56.4649 7.34595 55.3149 5.92415 53.7049 5.21325C52.3249 6.51657 51.6349 8.64927 51.6349 11.7298C51.6349 13.7441 51.9799 15.6398 52.5549 17.1801C53.3599 19.1943 54.5099 20.4976 56.0049 21.327C57.3849 19.9052 58.1899 18.0095 58.1899 15.5213ZM91.9999 19.0758C89.6999 20.6161 86.9399 22.6303 83.8349 24.8815C81.6499 21.6824 79.8099 19.1943 78.3149 17.2986L72.2199 25L70.6099 22.0379L76.4749 14.8104C74.0599 11.8483 71.8749 9.36017 70.0349 7.34595V6.2796C73.2549 4.50235 76.1299 2.7251 78.4299 1.18481C80.1549 3.67297 81.7649 5.92415 83.3749 7.93837L88.6649 1.54026L90.2749 4.26538L85.2149 10.4265C87.7449 13.6256 90.0449 16.1137 91.9999 18.0095V19.0758Z" fill="white"/>
<path d="M8.28 9.2417H0V23.9336H8.28V9.2417Z" fill="white"/>
<path d="M4.14007 0C6.32507 0 8.16507 1.89573 8.16507 4.14692C8.16837 4.69245 8.06651 5.23323 7.8654 5.73789C7.6643 6.24255 7.36794 6.70105 6.99353 7.08681C6.61911 7.47257 6.17409 7.7779 5.68426 7.9851C5.19444 8.19229 4.66956 8.29724 4.14007 8.29384C3.61058 8.29724 3.0857 8.19229 2.59587 7.9851C2.10605 7.7779 1.66102 7.47257 1.28661 7.08681C0.912196 6.70105 0.615842 6.24255 0.414734 5.73789C0.213627 5.23323 0.111769 4.69245 0.115068 4.14692C0.115068 1.89573 1.95507 0 4.14007 0Z" fill="white"/>
</svg>
