<svg width="92" height="25" viewBox="0 0 92 25" fill="none" xmlns="http://www.w3.org/2000/svg">
<path d="M39.3299 18.0095C39.3299 20.3792 38.0649 22.0379 35.6499 23.1043C34.1549 23.6967 31.5099 23.9337 27.5999 23.9337H16.2149L15.2949 23.1043C15.4099 19.4313 15.5249 16.1138 15.5249 13.1517C15.5249 10.1896 15.4099 6.99053 15.2949 3.55451L16.3299 2.48816H26.7949C30.2449 2.48816 32.6599 2.72513 33.8099 3.08058C36.7999 3.90996 38.1799 5.45025 38.1799 7.70143C38.1799 9.95262 36.9149 11.6114 34.1549 12.4408C35.4791 12.7538 36.7052 13.4058 37.7199 14.3365C38.8699 15.2844 39.3299 16.5877 39.3299 18.0095ZM28.5199 8.53082C28.5199 7.46447 28.1749 6.63508 27.5999 6.04267C26.9099 5.33176 26.1049 4.97631 25.1849 4.73935V12.2038C26.1049 12.0853 26.9099 11.6114 27.5999 11.019C28.1749 10.3081 28.5199 9.47868 28.5199 8.53082ZM29.3249 18.0095C29.3249 16.8247 28.8649 15.8768 28.0599 15.2844C27.2549 14.692 26.3349 14.3365 25.1849 14.218V21.801C26.3349 21.6825 27.2549 21.327 28.0599 20.7346C28.9799 20.0237 29.3249 19.0758 29.3249 18.0095ZM68.8849 13.2702C68.8849 17.0616 67.2749 19.9052 64.0549 21.9194C61.2949 23.5782 58.0749 24.2891 54.1649 24.2891C50.5999 24.2891 47.6099 23.4597 45.0799 21.6825C42.3199 19.6683 40.9399 16.9431 40.9399 13.3886C40.9399 9.47868 42.4349 6.63508 45.5399 4.62086C48.0699 3.08058 51.2899 2.2512 55.1999 2.2512C58.9949 2.2512 62.0999 3.08058 64.5149 4.85783C67.5049 6.87205 68.8849 9.71565 68.8849 13.2702ZM58.1899 15.5213C58.2022 13.5079 57.8914 11.5062 57.2699 9.59717C56.4649 7.34598 55.3149 5.92418 53.7049 5.21328C52.3249 6.5166 51.6349 8.6493 51.6349 11.7299C51.6349 13.7441 51.9799 15.6398 52.5549 17.1801C53.3599 19.1943 54.5099 20.4976 56.0049 21.327C57.3849 19.9052 58.1899 18.0095 58.1899 15.5213ZM91.9999 19.0758C89.6999 20.6161 86.9399 22.6303 83.8349 24.8815C81.6499 21.6825 79.8099 19.1943 78.3149 17.2986L72.2199 25L70.6099 22.0379L76.4749 14.8104C74.0599 11.8484 71.8749 9.3602 70.0349 7.34598V6.27963C73.2549 4.50238 76.1299 2.72513 78.4299 1.18484C80.1549 3.673 81.7649 5.92418 83.3749 7.9384L88.6649 1.5403L90.2749 4.26541L85.2149 10.4266C87.7449 13.6256 90.0449 16.1138 91.9999 18.0095V19.0758Z" fill="#727883"/>
<path d="M8.28 9.2417H0V23.9336H8.28V9.2417Z" fill="#727883"/>
<path d="M4.14031 0C6.32531 0 8.16531 1.89573 8.16531 4.14692C8.16861 4.69245 8.06675 5.23323 7.86565 5.73789C7.66454 6.24255 7.36819 6.70105 6.99377 7.08681C6.61936 7.47257 6.17433 7.7779 5.68451 7.9851C5.19468 8.19229 4.6698 8.29724 4.14031 8.29384C3.61082 8.29724 3.08594 8.19229 2.59612 7.9851C2.10629 7.7779 1.66127 7.47257 1.28685 7.08681C0.91244 6.70105 0.616086 6.24255 0.414979 5.73789C0.213872 5.23323 0.112014 4.69245 0.115312 4.14692C0.115312 1.89573 1.95531 0 4.14031 0Z" fill="#727883"/>
</svg>
