<svg width="36" height="46" viewBox="0 0 36 46" fill="none" xmlns="http://www.w3.org/2000/svg">
<path d="M35.0017 18.5C34.8183 21.3688 34.013 24.1635 32.6417 26.69C31.9817 28.04 31.2117 29.41 30.3817 30.75C29.3817 32.36 28.3017 33.94 27.1917 35.43C25.4013 37.8636 23.4432 40.1692 21.3317 42.33C20.6274 43.039 19.8828 43.7067 19.1017 44.33C18.8561 44.5191 18.5989 44.6928 18.3317 44.85L18.0917 44.96H18.0017H17.9217L17.6817 44.85C17.413 44.6952 17.1557 44.5214 16.9117 44.33C16.1284 43.7092 15.3837 43.0413 14.6817 42.33C12.5695 40.167 10.6082 37.8616 8.8117 35.43C7.7117 33.94 6.6217 32.36 5.6317 30.75C4.8017 29.41 4.0317 28.04 3.3717 26.69C1.9978 24.1639 1.18915 21.3694 1.0017 18.5C0.937573 13.9256 2.69211 9.51296 5.87976 6.23155C9.06742 2.95014 13.4274 1.06846 18.0017 1C20.2671 1.03259 22.5038 1.51113 24.5842 2.40827C26.6647 3.30541 28.548 4.60359 30.1266 6.22866C31.7052 7.85374 32.9483 9.77387 33.7848 11.8794C34.6213 13.9849 35.0348 16.2346 35.0017 18.5Z" fill="#438EFF" stroke="white"/>
<path d="M30.3813 30.75C29.3813 32.36 28.3013 33.94 27.1913 35.43C25.4009 37.8635 23.4429 40.1691 21.3313 42.33C20.6271 43.0389 19.8825 43.7067 19.1013 44.33C18.8557 44.5191 18.5985 44.6928 18.3313 44.85L18.0913 44.96H18.0013H17.9213L17.6813 44.85C17.4127 44.6951 17.1553 44.5214 16.9113 44.33C16.1281 43.7092 15.3834 43.0413 14.6813 42.33C12.5691 40.167 10.6079 37.8616 8.81135 35.43C7.71135 33.94 6.62135 32.36 5.63135 30.75C6.92818 28.6317 8.74703 26.8818 10.9138 25.6678C13.0805 24.4538 15.5227 23.8162 18.0063 23.8162C20.49 23.8162 22.9322 24.4538 25.0989 25.6678C27.2657 26.8818 29.0845 28.6317 30.3813 30.75Z" fill="white" stroke="white"/>
<path d="M18.0013 21.57C22.2649 21.57 25.7212 18.1136 25.7212 13.85C25.7212 9.58637 22.2649 6.13 18.0013 6.13C13.7376 6.13 10.2812 9.58637 10.2812 13.85C10.2812 18.1136 13.7376 21.57 18.0013 21.57Z" fill="white"/>
</svg>
