<svg width="35" height="45" viewBox="0 0 35 45" fill="none" xmlns="http://www.w3.org/2000/svg">
<path d="M34.5 18C34.5 20.3726 33.5848 23.2213 32.1319 26.1931C30.684 29.1548 28.7251 32.1925 26.6901 34.9296C24.6555 37.6663 22.5535 40.0908 20.8264 41.8266C19.9619 42.6955 19.1991 43.3839 18.5913 43.8512C18.2867 44.0854 18.031 44.2564 17.828 44.3664C17.7268 44.4213 17.6462 44.4569 17.5849 44.478C17.5301 44.4968 17.5038 44.4995 17.5 44.4999C17.4962 44.4995 17.4699 44.4968 17.4151 44.478C17.3538 44.4569 17.2732 44.4213 17.172 44.3664C16.969 44.2564 16.7133 44.0854 16.4087 43.8512C15.8009 43.3839 15.0381 42.6955 14.1736 41.8266C12.4465 40.0908 10.3445 37.6663 8.30991 34.9296C6.27492 32.1925 4.31605 29.1548 2.86806 26.1931C1.41517 23.2213 0.5 20.3726 0.5 18C0.5 8.32165 8.12434 0.5 17.5 0.5C26.8757 0.5 34.5 8.32165 34.5 18Z" fill="#438EFF" stroke="white"/>
<path d="M16.8096 7.82617C19.5299 7.82617 21.6168 8.34791 23.0701 9.39139C24.5421 10.4162 25.2781 11.9535 25.2781 14.0032C25.2781 15.1212 25.0731 16.0808 24.6632 16.8821C24.2719 17.6647 23.6943 18.3075 22.9304 18.8106C22.1851 19.2951 21.2721 19.6492 20.1914 19.8728C19.1107 20.0964 17.8903 20.2082 16.5301 20.2082H14.378V27.3914H11.667V8.30133C12.4309 8.11499 13.2787 7.99387 14.2103 7.93797C15.1606 7.86344 16.027 7.82617 16.8096 7.82617ZM17.0332 10.2019C15.878 10.2019 14.9929 10.2299 14.378 10.2858V17.8883H16.4183C17.3499 17.8883 18.1884 17.8324 18.9337 17.7206C19.679 17.5901 20.3032 17.3852 20.8063 17.1057C21.328 16.8075 21.7286 16.4069 22.0081 15.9038C22.2876 15.4007 22.4273 14.7578 22.4273 13.9752C22.4273 13.2299 22.2783 12.615 21.9801 12.1305C21.7006 11.646 21.3094 11.2641 20.8063 10.9846C20.3218 10.6864 19.7535 10.4815 19.1014 10.3697C18.4493 10.2578 17.7599 10.2019 17.0332 10.2019Z" fill="white"/>
</svg>
