<svg width="35" height="45" viewBox="0 0 35 45" fill="none" xmlns="http://www.w3.org/2000/svg">
<g clip-path="url(#clip0_506_899)">
<path d="M34.5 18C34.5 20.3726 33.5848 23.2213 32.1319 26.1931C30.684 29.1548 28.7251 32.1925 26.6901 34.9296C24.6555 37.6663 22.5535 40.0908 20.8264 41.8266C19.9619 42.6955 19.1991 43.3839 18.5913 43.8512C18.2867 44.0854 18.031 44.2564 17.828 44.3664C17.7268 44.4213 17.6462 44.4569 17.5849 44.478C17.5301 44.4968 17.5038 44.4995 17.5 44.4999C17.4962 44.4995 17.4699 44.4968 17.4151 44.478C17.3538 44.4569 17.2732 44.4213 17.172 44.3664C16.969 44.2564 16.7133 44.0854 16.4087 43.8512C15.8009 43.3839 15.0381 42.6955 14.1736 41.8266C12.4465 40.0908 10.3445 37.6663 8.30991 34.9296C6.27492 32.1925 4.31605 29.1548 2.86806 26.1931C1.41517 23.2213 0.5 20.3726 0.5 18C0.5 8.32165 8.12434 0.5 17.5 0.5C26.8757 0.5 34.5 8.32165 34.5 18Z" fill="#438EFF" stroke="white"/>
</g>
<defs>
<clipPath id="clip0_506_899">
<rect width="35" height="45" fill="white"/>
</clipPath>
</defs>
</svg>
