<svg width="35" height="45" viewBox="0 0 35 45" fill="none" xmlns="http://www.w3.org/2000/svg">
<path d="M34.5 18C34.5 20.3726 33.5848 23.2213 32.1319 26.1931C30.684 29.1548 28.7251 32.1925 26.6901 34.9296C24.6555 37.6663 22.5535 40.0908 20.8264 41.8266C19.9619 42.6955 19.1991 43.3839 18.5913 43.8512C18.2867 44.0854 18.031 44.2564 17.828 44.3664C17.7268 44.4213 17.6462 44.4569 17.5849 44.478C17.5301 44.4968 17.5038 44.4995 17.5 44.4999C17.4962 44.4995 17.4699 44.4968 17.4151 44.478C17.3538 44.4569 17.2732 44.4213 17.172 44.3664C16.969 44.2564 16.7133 44.0854 16.4087 43.8512C15.8009 43.3839 15.0381 42.6955 14.1736 41.8266C12.4465 40.0908 10.3445 37.6663 8.30991 34.9296C6.27492 32.1925 4.31605 29.1548 2.86806 26.1931C1.41517 23.2213 0.5 20.3726 0.5 18C0.5 8.32165 8.12434 0.5 17.5 0.5C26.8757 0.5 34.5 8.32165 34.5 18Z" fill="#438EFF" stroke="white"/>
<path d="M16.8091 7.82608C19.5295 7.82608 21.6163 8.34782 23.0697 9.3913C24.5416 10.4161 25.2776 11.9534 25.2776 14.0031C25.2776 15.1211 25.0727 16.0807 24.6627 16.882C24.2715 17.6646 23.6938 18.3074 22.9299 18.8106C22.1846 19.295 21.2716 19.6491 20.1909 19.8727C19.1102 20.0963 17.8898 20.2081 16.5296 20.2081H14.3775V27.3913H11.6665V8.30124C12.4304 8.1149 13.2782 7.99378 14.2099 7.93788C15.1601 7.86335 16.0265 7.82608 16.8091 7.82608ZM17.0327 10.2019C15.8775 10.2019 14.9924 10.2298 14.3775 10.2857V17.8882H16.4178C17.3494 17.8882 18.1879 17.8323 18.9332 17.7205C19.6785 17.5901 20.3027 17.3851 20.8058 17.1056C21.3275 16.8074 21.7281 16.4068 22.0076 15.9037C22.2871 15.4006 22.4268 14.7578 22.4268 13.9751C22.4268 13.2298 22.2778 12.6149 21.9796 12.1304C21.7002 11.646 21.3089 11.264 20.8058 10.9845C20.3213 10.6863 19.753 10.4814 19.1009 10.3696C18.4488 10.2578 17.7594 10.2019 17.0327 10.2019Z" fill="white"/>
</svg>
