<svg width="85" height="20" viewBox="0 0 85 20" fill="none" xmlns="http://www.w3.org/2000/svg">
<g clip-path="url(#clip0_418_3045)">
<path d="M5.05434 15.6445V3.78666H0V0.746674H13.6232V3.75112H8.56883V15.6089L5.05434 15.6445Z" fill="#727883"/>
<path d="M13.4424 4.72889H16.7938V5.58225C17.1562 4.94225 17.8808 4.4267 19.4931 4.4267C19.861 4.40244 20.2302 4.40244 20.5982 4.4267V7.46669C20.0883 7.34632 19.5644 7.29253 19.0402 7.30669C17.8446 7.30669 16.7938 7.68002 16.7938 8.40891V15.52H13.4424V4.72889Z" fill="#727883"/>
<path d="M31.6847 15.0933C29.9773 15.6458 28.1926 15.9336 26.3948 15.9466C22.7716 15.9466 21.6484 15.1822 21.6484 12.3911C21.6484 9.59996 23.3332 8.83552 25.9963 8.83552C26.8423 8.84696 27.6854 8.93629 28.5144 9.10223C28.5144 7.59112 28.1702 7.1644 25.9963 7.1644C24.8234 7.16929 23.6576 7.34301 22.5361 7.67998L22.047 5.01331C23.613 4.63855 25.2178 4.44173 26.8296 4.42667C30.1448 4.42667 31.7209 5.43997 31.7209 8.67553L31.6847 15.0933ZM26.6666 13.5111C27.2835 13.512 27.8961 13.4098 28.4782 13.2089V11.1467C27.8819 11.031 27.274 10.9833 26.6666 11.0044C25.4709 11.0044 25.0361 11.1289 25.0361 12.2133C25.0361 13.2978 25.3622 13.5111 26.6666 13.5111Z" fill="#727883"/>
<path d="M42.1741 15.3955C41.0482 15.7697 39.8663 15.956 38.6777 15.9466C35.3625 15.9466 33.1523 14.5955 33.1523 10.1155C33.1523 5.63552 35.3806 4.42666 38.6777 4.42666C39.8608 4.41756 41.0389 4.57927 42.1741 4.90664L41.4857 7.67997C40.6809 7.38037 39.8282 7.22388 38.9675 7.21779C37.3371 7.21779 36.5038 7.5022 36.5038 10.1866C36.5038 12.8711 37.3371 13.1378 38.9675 13.1378C39.8309 13.1246 40.6845 12.9559 41.4857 12.64L42.1741 15.3955Z" fill="#727883"/>
<path d="M51.3405 15.6445C50.2017 13.5605 48.8086 11.6203 47.1919 9.86668V15.6445H43.7861V0.248901H47.1376V9.86668C48.5527 8.25528 49.8368 6.53739 50.9782 4.72888H54.8187C53.7355 6.4902 52.4664 8.13483 51.0325 9.63556C52.6957 11.4245 54.0925 13.4356 55.1811 15.6089L51.3405 15.6445Z" fill="#727883"/>
<path d="M60.6164 1.54668C60.6164 3.02224 60.1453 3.32446 58.8048 3.32446C57.4642 3.32446 56.9932 3.07557 56.9932 1.54668C56.9932 0.0177928 57.4461 -3.05176e-05 58.8048 -3.05176e-05C60.1635 -3.05176e-05 60.6164 0.213348 60.6164 1.54668ZM60.399 15.6444H57.0475V4.72886H60.399V15.6444Z" fill="#727883"/>
<path d="M65.7069 15.6444H62.3555V5.40442C64.176 4.79104 66.0831 4.46114 68.0076 4.42667C71.0692 4.42667 72.591 5.68886 72.591 9.61775V15.6444H69.2395V9.86666C69.2395 7.87555 68.9316 7.34219 67.3011 7.34219C66.7638 7.34593 66.2287 7.41159 65.7069 7.53778V15.6444Z" fill="#727883"/>
<path d="M78.9492 15.8756C76.0688 15.8756 74.4746 14.6844 74.4746 10.2755C74.4746 5.86664 76.1594 4.42668 79.9094 4.42668C81.6184 4.42291 83.3176 4.68082 84.9456 5.19111V14.7734C84.9456 19.1467 82.3188 20 78.8043 20C77.4202 19.9924 76.0456 19.7766 74.7282 19.36L75.3261 16.8C76.4347 17.1073 77.5799 17.2687 78.7319 17.28C80.5435 17.28 81.5942 16.8356 81.5942 15.2533C80.7725 15.6562 79.8677 15.8691 78.9492 15.8756ZM81.6304 7.32446C81.092 7.1268 80.5204 7.0303 79.9456 7.04001C78.3514 7.04001 77.8441 7.41334 77.8441 10.2045C77.8441 12.5156 78.2971 13.1378 79.855 13.1378C80.8333 13.1378 81.6666 12.8356 81.6666 12.3556L81.6304 7.32446Z" fill="#727883"/>
</g>
<defs>
<clipPath id="clip0_418_3045">
<rect width="85" height="20" fill="white"/>
</clipPath>
</defs>
</svg>
