<svg width="85" height="20" viewBox="0 0 85 20" fill="none" xmlns="http://www.w3.org/2000/svg">
<g clip-path="url(#clip0_3_167)">
<path d="M5.05434 15.6444V3.78657H0V0.746582H13.6232V3.75103H8.56883V15.6088L5.05434 15.6444Z" fill="white"/>
<path d="M13.4421 4.72883H16.7936V5.58219C17.1559 4.94219 17.8805 4.42664 19.4929 4.42664C19.8608 4.40238 20.23 4.40238 20.5979 4.42664V7.46663C20.088 7.34626 19.5642 7.29247 19.04 7.30663C17.8443 7.30663 16.7936 7.67996 16.7936 8.40885V15.52H13.4421V4.72883Z" fill="white"/>
<path d="M31.6847 15.0934C29.9773 15.6459 28.1926 15.9337 26.3948 15.9467C22.7716 15.9467 21.6484 15.1823 21.6484 12.3912C21.6484 9.60006 23.3332 8.83561 25.9963 8.83561C26.8423 8.84705 27.6854 8.93638 28.5144 9.10232C28.5144 7.59121 28.1702 7.1645 25.9963 7.1645C24.8234 7.16938 23.6576 7.3431 22.5361 7.68007L22.047 5.0134C23.613 4.63865 25.2178 4.44182 26.8296 4.42676C30.1448 4.42676 31.7209 5.44006 31.7209 8.67562L31.6847 15.0934ZM26.6666 13.5112C27.2835 13.5121 27.8961 13.4099 28.4782 13.209V11.1468C27.8819 11.0311 27.274 10.9834 26.6666 11.0045C25.4709 11.0045 25.0361 11.129 25.0361 12.2134C25.0361 13.2979 25.3622 13.5112 26.6666 13.5112Z" fill="white"/>
<path d="M42.1738 15.3955C41.048 15.7697 39.8661 15.956 38.6774 15.9466C35.3622 15.9466 33.1521 14.5955 33.1521 10.1155C33.1521 5.63549 35.3803 4.42663 38.6774 4.42663C39.8606 4.41753 41.0387 4.57924 42.1738 4.90661L41.4854 7.67994C40.6807 7.38033 39.828 7.22385 38.9673 7.21776C37.3369 7.21776 36.5035 7.50217 36.5035 10.1866C36.5035 12.8711 37.3369 13.1377 38.9673 13.1377C39.8307 13.1246 40.6842 12.9559 41.4854 12.64L42.1738 15.3955Z" fill="white"/>
<path d="M51.3405 15.6443C50.2017 13.5603 48.8086 11.6202 47.1919 9.86656V15.6443H43.7861V0.248779H47.1376V9.86656C48.5527 8.25516 49.8368 6.53727 50.9782 4.72876H54.8187C53.7355 6.49008 52.4664 8.13471 51.0325 9.63544C52.6957 11.4244 54.0925 13.4355 55.1811 15.6087L51.3405 15.6443Z" fill="white"/>
<path d="M60.6159 1.54671C60.6159 3.02227 60.1449 3.32449 58.8043 3.32449C57.4637 3.32449 56.9927 3.0756 56.9927 1.54671C56.9927 0.0178233 57.4456 0 58.8043 0C60.163 0 60.6159 0.213379 60.6159 1.54671ZM60.3985 15.6445H57.047V4.72889H60.3985V15.6445Z" fill="white"/>
<path d="M65.7064 15.6445H62.355V5.40451C64.1755 4.79113 66.0826 4.46123 68.0071 4.42676C71.0687 4.42676 72.5905 5.68895 72.5905 9.61784V15.6445H69.239V9.86675C69.239 7.87564 68.9311 7.34229 67.3007 7.34229C66.7633 7.34602 66.2282 7.41169 65.7064 7.53787V15.6445Z" fill="white"/>
<path d="M78.9492 15.8754C76.0688 15.8754 74.4746 14.6843 74.4746 10.2754C74.4746 5.86652 76.1594 4.42655 79.9094 4.42655C81.6184 4.42279 83.3176 4.6807 84.9456 5.19099V14.7732C84.9456 19.1466 82.3188 19.9999 78.8043 19.9999C77.4202 19.9923 76.0456 19.7765 74.7282 19.3599L75.3261 16.7999C76.4347 17.1072 77.5799 17.2686 78.7319 17.2799C80.5435 17.2799 81.5942 16.8354 81.5942 15.2532C80.7725 15.6561 79.8677 15.869 78.9492 15.8754ZM81.6304 7.32434C81.092 7.12668 80.5204 7.03018 79.9456 7.03989C78.3514 7.03989 77.8441 7.41322 77.8441 10.2043C77.8441 12.5154 78.2971 13.1377 79.855 13.1377C80.8333 13.1377 81.6666 12.8354 81.6666 12.3554L81.6304 7.32434Z" fill="white"/>
</g>
<defs>
<clipPath id="clip0_3_167">
<rect width="85" height="20" fill="white"/>
</clipPath>
</defs>
</svg>
