<svg width="31" height="30" viewBox="0 0 31 30" fill="none" xmlns="http://www.w3.org/2000/svg">
<path d="M30.2692 0.00867524C30.4512 0.119784 30.5929 0.286455 30.6736 0.484444C30.7542 0.682433 30.7696 0.901158 30.7173 1.10853L26.486 26.8086C26.3976 27.1159 26.2037 27.3818 25.9385 27.5587C25.7595 27.6101 25.5699 27.6101 25.391 27.5587H24.9927L17.476 24.4588L13.4439 29.4588C13.3435 29.5868 13.2147 29.6896 13.0678 29.759C12.9209 29.8285 12.7601 29.8624 12.5978 29.8585H12.2493C12.0478 29.7796 11.8741 29.6428 11.7501 29.4649C11.6261 29.2869 11.5572 29.076 11.5523 28.8588V23.0086L25.9385 5.30866L8.11758 20.7588L1.54674 18.0586C1.35423 18.0029 1.18583 17.8839 1.06852 17.7208C0.951216 17.5576 0.891754 17.3597 0.899594 17.1586C0.86665 16.9605 0.897352 16.757 0.986792 16.5773C1.07623 16.3976 1.21999 16.251 1.39756 16.1586L29.1244 0.108773C29.3042 0.064287 29.492 0.064287 29.6719 0.108773C29.8568 0.0169697 30.0646 -0.0179216 30.2692 0.00867524Z" fill="#727883"/>
</svg>
