<svg width="31" height="30" viewBox="0 0 31 30" fill="none" xmlns="http://www.w3.org/2000/svg">
<path d="M30.2694 0.00867524C30.4514 0.119784 30.5932 0.286455 30.6738 0.484444C30.7545 0.682433 30.7699 0.901158 30.7176 1.10853L26.4862 26.8086C26.3979 27.1159 26.2039 27.3818 25.9387 27.5587C25.7598 27.6101 25.5701 27.6101 25.3912 27.5587H24.9929L17.4763 24.4588L13.4442 29.4588C13.3437 29.5868 13.2149 29.6896 13.0681 29.759C12.9212 29.8285 12.7603 29.8624 12.598 29.8585H12.2495C12.0481 29.7796 11.8744 29.6428 11.7504 29.4649C11.6263 29.2869 11.5574 29.076 11.5526 28.8588V23.0086L25.9387 5.30866L8.11782 20.7588L1.54699 18.0586C1.35447 18.0029 1.18607 17.8839 1.06877 17.7208C0.95146 17.5576 0.891998 17.3597 0.899838 17.1586C0.866894 16.9605 0.897596 16.757 0.987036 16.5773C1.07648 16.3976 1.22023 16.251 1.39781 16.1586L29.1246 0.108773C29.3045 0.064287 29.4923 0.064287 29.6721 0.108773C29.857 0.0169697 30.0649 -0.0179216 30.2694 0.00867524Z" fill="white"/>
</svg>
