<svg width="32" height="19" viewBox="0 0 32 19" fill="none" xmlns="http://www.w3.org/2000/svg">
<path d="M31.8285 1.76806C32.1271 2.46806 31.2809 4.11806 29.3395 6.76806L28.2941 8.21795C27.959 8.6018 27.6433 9.00225 27.3483 9.4179C27.1602 9.67003 26.9938 9.93782 26.8506 10.2181C26.8506 10.5681 26.6017 10.7678 26.8506 10.9178C27.0995 11.0678 26.8506 11.2678 26.8506 11.5178C26.9849 11.7855 27.171 12.0235 27.3981 12.2179L28.3439 13.1179C29.5668 14.2016 30.6385 15.4461 31.5298 16.8178C31.5638 16.9659 31.5638 17.1202 31.5298 17.2682C31.5804 17.465 31.5804 17.6714 31.5298 17.8682C31.4413 18.0525 31.3033 18.2082 31.1315 18.318C30.8059 18.4098 30.4614 18.4098 30.1359 18.318H25.855C25.5602 18.3864 25.2538 18.3864 24.959 18.318C24.6407 18.2344 24.3381 18.0989 24.063 17.9177H23.7145C23.293 17.6143 22.9084 17.262 22.5694 16.8679L21.4246 15.5678C21.1439 15.2011 20.8079 14.8809 20.4289 14.6181C20.3038 14.5001 20.1539 14.4115 19.9902 14.3596C19.8265 14.3077 19.6531 14.2934 19.4831 14.3178H19.1845L18.836 14.818C18.7877 15.116 18.7877 15.4199 18.836 15.718C18.7797 16.1494 18.7797 16.5865 18.836 17.018C18.8601 17.167 18.8601 17.3188 18.836 17.4678C18.836 17.4678 18.836 17.4681 18.836 17.7681C18.5992 17.9739 18.3022 18.0965 17.9898 18.1179H16.0484C15.2397 18.2383 14.4179 18.2383 13.6093 18.1179C12.8495 17.8967 12.1152 17.5954 11.419 17.2182L9.72669 16.1177C9.30717 15.8291 8.90804 15.5119 8.53204 15.168L8.13373 14.7679C7.96049 14.6056 7.80966 14.4207 7.68559 14.218L6.49094 12.7181C5.84382 11.9181 5.29633 11.068 4.69898 10.168C4.10164 9.26802 3.45434 8.11796 2.65788 6.66796C1.86142 5.21796 1.16481 3.6681 0.46791 2.1181C0.454707 1.96839 0.454707 1.81767 0.46791 1.66796C0.45936 1.56815 0.45936 1.46779 0.46791 1.36798C0.46791 1.36798 0.915627 1.06799 1.41341 1.06799H5.94345C5.94345 1.06799 6.24221 1.06799 6.34177 1.06799H6.64043C6.82534 1.2068 6.96393 1.39845 7.03844 1.61792C7.28733 2.16792 7.5364 2.7681 7.83507 3.3681C8.13374 3.9681 8.33288 4.41789 8.48222 4.71789L8.78088 5.21807C9.07955 5.86807 9.42796 6.4679 9.67686 6.9179C9.93125 7.32103 10.214 7.70525 10.523 8.06781C10.7158 8.32365 10.9517 8.54366 11.22 8.71783C11.3993 8.7667 11.5882 8.7667 11.7675 8.71783H12.2156V8.31805C12.2504 8.06927 12.2504 7.81671 12.2156 7.56793C12.2156 7.21793 12.2156 6.76809 12.2156 6.16809C12.3158 5.48846 12.3158 4.79755 12.2156 4.11792C12.2677 3.70289 12.2677 3.28294 12.2156 2.86792C12.2406 2.61854 12.2406 2.36747 12.2156 2.1181C12.039 1.90044 11.8195 1.72129 11.5712 1.59228C11.3229 1.46327 11.0508 1.38701 10.7718 1.36798C10.7718 1.36798 10.7718 1.36789 10.7718 0.967891L11.419 0.468013C12.7118 0.0956094 14.061 -0.0399721 15.4015 0.0679272C16.1455 -0.0226424 16.8974 -0.0226424 17.6413 0.0679272H18.1891C18.3305 0.17675 18.4487 0.312803 18.5373 0.468013C18.5816 0.648647 18.5816 0.837305 18.5373 1.01794C18.5721 1.26672 18.5721 1.51928 18.5373 1.76806C18.5643 2.06745 18.5643 2.36863 18.5373 2.66803C18.5584 3.06774 18.5584 3.46826 18.5373 3.86798V5.96789C18.4863 6.23209 18.4863 6.50386 18.5373 6.76806C18.5146 6.98413 18.5146 7.20202 18.5373 7.41809C18.4969 7.63285 18.4969 7.85304 18.5373 8.06781C18.6298 8.24936 18.767 8.40437 18.9356 8.51794H19.2343C19.3631 8.56369 19.5038 8.56369 19.6326 8.51794L20.2798 7.96801C20.6202 7.61942 20.9207 7.23349 21.1757 6.81781L22.2707 5.01788C22.9865 3.82855 23.5869 2.57275 24.063 1.26788V0.967891H29.5884C29.9324 0.888698 30.2898 0.888698 30.6338 0.967891C30.8124 0.91366 31.0028 0.91366 31.1813 0.967891L31.8285 1.76806Z" fill="#727883"/>
</svg>
