<svg width="26" height="30" viewBox="0 0 26 30" fill="none" xmlns="http://www.w3.org/2000/svg">
<path d="M25.4565 21.3501C25.5108 23.3105 25.3605 25.2714 25.0084 27.2003C24.8534 27.8285 24.5256 28.4001 24.0625 28.8501C23.5859 29.2735 22.9988 29.5512 22.3702 29.6503C20.2795 29.6503 17.3921 30 13.1112 30C8.83018 30 5.8933 30.0003 3.85237 29.6503C3.21749 29.5725 2.62409 29.2919 2.15976 28.8501C1.66425 28.4182 1.3163 27.8414 1.16443 27.2003C0.829662 25.2695 0.696112 23.3087 0.766114 21.3501C0.700712 19.3916 0.83423 17.4315 1.16443 15.5002C1.29734 14.8589 1.62884 14.2765 2.11176 13.8364C2.59468 13.3962 3.20409 13.121 3.85237 13.0502C10.0162 12.5836 16.2064 12.5836 22.3702 13.0502C22.995 13.1295 23.5831 13.3899 24.0625 13.8C24.5543 14.2477 24.8865 14.8449 25.0084 15.5002C25.3653 17.4285 25.5157 19.3896 25.4565 21.3501ZM5.99282 17.1503H7.78479V15.6003H2.80691V17.1503H4.54935V26.7004H6.19213L5.99282 17.1503ZM8.83025 0H10.5229L8.48176 6.65009V11.2003H6.83898V6.65009C6.57495 5.44331 6.22581 4.25716 5.79382 3.10028L4.74835 0H6.49079L7.68544 4.40002L8.83025 0ZM10.8215 26.7004H12.3148V18.45H10.8215V24.7504C10.4731 25.2004 10.1744 25.4504 9.87571 25.4504C9.82801 25.4594 9.77867 25.4563 9.73231 25.4419C9.68595 25.4275 9.64388 25.4019 9.60956 25.3674C9.57525 25.333 9.54979 25.2907 9.53543 25.2441C9.52107 25.1976 9.51831 25.148 9.52723 25.1001C9.52723 25.1001 9.52723 25.1001 9.52723 24.5001V18.45H8.08345V24.95C8.02062 25.3642 8.02062 25.7857 8.08345 26.2C8.15148 26.4024 8.28903 26.574 8.47143 26.684C8.65383 26.7939 8.86924 26.8349 9.07908 26.7999C9.7521 26.7028 10.3602 26.3438 10.7717 25.8002L10.8215 26.7004ZM14.9529 5.55023V8.50006C15.0082 9.18097 14.8518 9.86238 14.5051 10.4501C14.2951 10.7111 14.0297 10.9217 13.7282 11.0663C13.4268 11.2109 13.0967 11.286 12.7627 11.286C12.4286 11.286 12.0989 11.2109 11.7974 11.0663C11.496 10.9217 11.2305 10.7111 11.0205 10.4501C10.6397 9.87545 10.4643 9.18792 10.5229 8.50006V5.55023C10.456 4.86171 10.6321 4.17143 11.0205 3.60016C11.2305 3.33917 11.496 3.12862 11.7974 2.98401C12.0989 2.83939 12.4286 2.76428 12.7627 2.76428C13.0967 2.76428 13.4268 2.83939 13.7282 2.98401C14.0297 3.12862 14.2951 3.33917 14.5051 3.60016C14.7834 4.20966 14.8701 4.88993 14.7539 5.55023H14.9529ZM13.4596 8.75V5.25024C13.4596 4.50024 13.4596 4.10004 12.7627 4.10004C12.0658 4.10004 12.0162 4.50024 12.0162 5.25024V8.75C12.0162 9.55 12.2649 9.95026 12.7627 9.95026C13.2107 9.95026 13.4596 9.55 13.4596 8.75ZM17.9398 24.2004V20.9003C18.0149 20.3528 18.0149 19.7976 17.9398 19.2502C17.8926 18.981 17.7513 18.7376 17.5415 18.5635C17.3317 18.3894 17.0668 18.296 16.7947 18.3002C16.48 18.3207 16.1752 18.4178 15.9063 18.5834C15.6375 18.7489 15.4127 18.9779 15.2516 19.2502V15.6003H13.7583V26.7004H15.2516V25.9003C15.4242 26.1579 15.653 26.3724 15.9203 26.5283C16.1876 26.6842 16.4865 26.7771 16.7947 26.7999C17.0621 26.8165 17.3266 26.7345 17.5376 26.5686C17.7486 26.4028 17.8916 26.165 17.9398 25.9003C18.0176 25.3363 18.0176 24.7644 17.9398 24.2004ZM16.4961 20.8002V24.35C16.4961 25.1 16.2472 25.4504 15.8489 25.4504C15.7062 25.4525 15.565 25.4219 15.4357 25.3613C15.3064 25.3007 15.1925 25.2112 15.1024 25.1001V20.1001C15.1925 19.989 15.3064 19.8998 15.4357 19.8392C15.565 19.7786 15.7062 19.748 15.8489 19.7501C16.2472 19.7001 16.4961 20.0502 16.4961 20.8002ZM20.578 2.85004V11.2003H19.0348V10.2502C18.8444 10.5371 18.5947 10.7792 18.3026 10.9604C18.0106 11.1416 17.6832 11.2574 17.3425 11.3C17.1338 11.3254 16.9225 11.2802 16.7422 11.1716C16.5619 11.0629 16.4228 10.897 16.3469 10.7001C16.2825 10.2859 16.2825 9.86423 16.3469 9.45007V2.65015H17.89V9.35028C17.89 9.35028 17.8901 9.75006 18.2385 9.75006C18.587 9.75006 18.8359 9.50024 19.1843 9.00024V2.65015L20.578 2.85004ZM23.6147 24.0503H22.0713C22.1119 24.3824 22.1119 24.718 22.0713 25.05C22.0716 25.1332 22.0548 25.2155 22.0217 25.2917C21.9887 25.368 21.9401 25.4367 21.8793 25.4932C21.8184 25.5496 21.7464 25.5925 21.6681 25.6195C21.5898 25.6465 21.507 25.657 21.4244 25.65C20.9266 25.65 20.6776 25.2501 20.6776 24.5001V22.6501H23.6642V20.9003C23.7156 20.2355 23.5591 19.5712 23.2164 19.0002C23.0077 18.7208 22.7372 18.4939 22.4261 18.3377C22.1151 18.1815 21.7722 18.1003 21.4244 18.1003C21.0767 18.1003 20.7334 18.1815 20.4224 18.3377C20.1114 18.4939 19.8408 18.7208 19.6322 19.0002C19.2894 19.5712 19.1329 20.2355 19.1843 20.9003V23.8C19.1175 24.4886 19.2936 25.1789 19.682 25.7501C19.8808 26.0366 20.1508 26.2657 20.4652 26.4148C20.7796 26.5639 21.1274 26.6281 21.4739 26.6003C21.8193 26.6186 22.1641 26.5503 22.4769 26.402C22.7896 26.2536 23.0608 26.0296 23.2662 25.7501C23.4469 25.4613 23.5657 25.138 23.6147 24.8004C23.6147 24.8004 23.6147 24.6003 23.6147 24.0503ZM22.1211 20.8002V21.6H20.6278V20.8002C20.6278 20.0502 20.8768 19.7 21.3746 19.7C21.8724 19.7 22.1211 20.0502 22.1211 20.8002Z" fill="white"/>
</svg>
